# xmcd CD database file
#
# Track frame offsets:
#	150
#	19198
#	48463
#	77038
#	111085
#	133693
#	158873
#	182710
#	201533
#
# Disc length: 2952 seconds
#
# Revision: 0
# Processed by: cddbd v1.4PL0 Copyright (c) Steve Scherf et al.
# Submitted via: CDex 1.50beta10
#
DISCID=7a0b8609
DTITLE=Howlin' Wolf - In Concert:  Rockin' The Blues
DYEAR=1997
DGENRE=Blues
TTITLE0=Shake It For Me
TTITLE1=Love Me
TTITLE2=Goin' Down Slow
TTITLE3=Forty-Four
TTITLE4=Dust My Broom
TTITLE5=I Didn't Mean To Hurt Your Feelings
TTITLE6=Rockin' The Blues
TTITLE7=All My Life
TTITLE8=Howlin' For My Darlin'
EXTD=YEAR: 1997
EXTT0=
EXTT1=
EXTT2=
EXTT3=
EXTT4=
EXTT5=
EXTT6=
EXTT7=
EXTT8=
PLAYORDER=
